<svg xmlns="http://www.w3.org/2000/svg" xmlns:xlink="http://www.w3.org/1999/xlink" width="500" zoomAndPan="magnify" viewBox="0 0 375 374.999991" height="500" preserveAspectRatio="xMidYMid meet" version="1.0"><defs><g/><clipPath id="7b2465e839"><path d="M 213.378906 128.890625 L 316.128906 128.890625 L 316.128906 231.640625 L 213.378906 231.640625 Z M 213.378906 128.890625 " clip-rule="nonzero"/></clipPath></defs><g fill="#000000" fill-opacity="1"><g transform="translate(53.936387, 181.494979)"><g><path d="M 29.9375 -9.265625 L 31.171875 -1.671875 C 28.785156 -0.753906 26.398438 -0.0976562 24.015625 0.296875 C 22.460938 0.585938 20.90625 0.734375 19.34375 0.734375 C 18.5625 0.734375 17.757812 0.679688 16.9375 0.578125 C 14.601562 0.390625 12.546875 -0.175781 10.765625 -1.125 C 8.992188 -2.082031 7.554688 -3.59375 6.453125 -5.65625 C 5.359375 -7.726562 4.8125 -10.296875 4.8125 -13.359375 L 4.8125 -36.796875 C 4.8125 -40.492188 5.332031 -43.289062 6.375 -45.1875 C 7.425781 -47.082031 9.023438 -48.6875 11.171875 -50 C 13.359375 -51.21875 15.960938 -51.828125 18.984375 -51.828125 C 19.273438 -51.828125 19.585938 -51.828125 19.921875 -51.828125 C 23.328125 -51.679688 26.46875 -50.878906 29.34375 -49.421875 L 27.078125 -42.125 C 24.835938 -42.945312 22.378906 -43.359375 19.703125 -43.359375 C 17.660156 -43.359375 16.003906 -42.796875 14.734375 -41.671875 C 13.472656 -40.554688 12.84375 -39.148438 12.84375 -37.453125 L 12.84375 -13.5 C 12.84375 -12.625 12.941406 -11.832031 13.140625 -11.125 C 13.335938 -10.425781 13.65625 -9.859375 14.09375 -9.421875 C 14.53125 -8.984375 14.96875 -8.59375 15.40625 -8.25 C 15.84375 -7.90625 16.445312 -7.6875 17.21875 -7.59375 C 18 -7.5 18.65625 -7.414062 19.1875 -7.34375 C 19.726562 -7.269531 20.472656 -7.304688 21.421875 -7.453125 C 22.367188 -7.597656 23.109375 -7.707031 23.640625 -7.78125 C 24.179688 -7.851562 24.953125 -8.007812 25.953125 -8.25 C 26.953125 -8.488281 27.644531 -8.65625 28.03125 -8.75 C 28.414062 -8.851562 29.050781 -9.023438 29.9375 -9.265625 Z M 29.9375 -9.265625 "/></g></g></g><g fill="#000000" fill-opacity="1"><g transform="translate(85.324725, 181.494979)"><g><path d="M 35.265625 -36.9375 L 35.265625 -13.5 C 35.265625 -8.582031 33.765625 -4.96875 30.765625 -2.65625 C 27.773438 -0.351562 24.1875 0.796875 20 0.796875 C 15.8125 0.796875 12.195312 -0.351562 9.15625 -2.65625 C 6.113281 -4.96875 4.59375 -8.582031 4.59375 -13.5 L 4.59375 -37.015625 C 4.59375 -42.023438 5.96875 -45.816406 8.71875 -48.390625 C 11.46875 -50.972656 15.25 -52.265625 20.0625 -52.265625 C 24.882812 -52.265625 28.625 -50.898438 31.28125 -48.171875 C 33.9375 -45.453125 35.265625 -41.707031 35.265625 -36.9375 Z M 27.234375 -15.03125 L 27.234375 -34.3125 C 27.234375 -37.425781 26.753906 -39.75 25.796875 -41.28125 C 24.847656 -42.8125 22.890625 -43.578125 19.921875 -43.578125 C 16.953125 -43.578125 14.992188 -42.832031 14.046875 -41.34375 C 13.097656 -39.863281 12.625 -37.546875 12.625 -34.390625 L 12.625 -14.890625 C 12.625 -12.554688 13.21875 -10.71875 14.40625 -9.375 C 15.601562 -8.039062 17.441406 -7.375 19.921875 -7.375 C 22.210938 -7.375 24.003906 -8.078125 25.296875 -9.484375 C 26.585938 -10.898438 27.234375 -12.75 27.234375 -15.03125 Z M 27.234375 -15.03125 "/></g></g></g><g fill="#000000" fill-opacity="1"><g transform="translate(125.399609, 181.494979)"><g><path d="M 20.875 0 L 5.6875 0 L 5.6875 -51.171875 L 19.421875 -51.171875 C 24.921875 -51.171875 29.117188 -49.660156 32.015625 -46.640625 C 34.910156 -43.628906 36.359375 -39.617188 36.359375 -34.609375 L 36.359375 -14.59375 C 36.359375 -4.863281 31.195312 0 20.875 0 Z M 28.328125 -13.875 L 28.328125 -35.328125 C 28.328125 -38.003906 27.65625 -39.960938 26.3125 -41.203125 C 24.976562 -42.441406 22.921875 -43.0625 20.140625 -43.0625 L 13.71875 -43.0625 L 13.71875 -7.375 L 19.703125 -7.375 C 20.921875 -7.375 21.941406 -7.429688 22.765625 -7.546875 C 23.597656 -7.671875 24.488281 -7.925781 25.4375 -8.3125 C 26.382812 -8.707031 27.101562 -9.367188 27.59375 -10.296875 C 28.082031 -11.222656 28.328125 -12.414062 28.328125 -13.875 Z M 28.328125 -13.875 "/></g></g></g><g fill="#000000" fill-opacity="1"><g transform="translate(167.445383, 181.494979)"><g><path d="M 29.9375 0 L 5.6875 0 L 5.6875 -51.09375 L 30.078125 -51.09375 L 30.078125 -43.0625 L 13.71875 -43.0625 L 13.71875 -30.15625 L 23.71875 -30.15625 L 21.46875 -22.484375 L 13.71875 -22.484375 L 13.71875 -7.296875 L 29.9375 -7.296875 Z M 29.9375 0 "/></g></g></g><g clip-path="url(#7b2465e839)"><path fill="#fbbe28" d="M 304.679688 140.402344 L 304.679688 184.515625 C 304.679688 185.683594 304.621094 186.851562 304.503906 188.011719 C 304.390625 189.175781 304.21875 190.328125 303.988281 191.472656 C 303.757812 192.617188 303.476562 193.75 303.136719 194.867188 C 302.796875 195.984375 302.402344 197.082031 301.953125 198.164062 C 301.507812 199.242188 301.007812 200.296875 300.457031 201.324219 C 299.90625 202.355469 299.304688 203.355469 298.65625 204.328125 C 298.007812 205.296875 297.3125 206.234375 296.570312 207.136719 C 295.828125 208.042969 295.046875 208.90625 294.21875 209.730469 C 293.394531 210.558594 292.527344 211.339844 291.625 212.082031 C 290.722656 212.824219 289.785156 213.519531 288.816406 214.167969 C 287.84375 214.816406 286.84375 215.417969 285.8125 215.96875 C 284.785156 216.519531 283.730469 217.019531 282.652344 217.464844 C 281.570312 217.914062 280.472656 218.308594 279.355469 218.648438 C 278.238281 218.988281 277.105469 219.269531 275.960938 219.5 C 274.816406 219.730469 273.664062 219.902344 272.5 220.015625 C 271.335938 220.132812 270.171875 220.191406 269.003906 220.191406 L 224.890625 220.191406 L 224.890625 140.402344 L 304.679688 140.402344 M 316.1875 128.890625 L 213.378906 128.890625 L 213.378906 231.699219 L 269.003906 231.699219 C 270.550781 231.699219 272.089844 231.625 273.628906 231.472656 C 275.167969 231.324219 276.695312 231.097656 278.210938 230.792969 C 279.726562 230.492188 281.222656 230.117188 282.703125 229.667969 C 284.179688 229.21875 285.632812 228.699219 287.0625 228.109375 C 288.488281 227.519531 289.882812 226.859375 291.246094 226.128906 C 292.609375 225.402344 293.933594 224.609375 295.21875 223.75 C 296.503906 222.890625 297.742188 221.972656 298.9375 220.992188 C 300.132812 220.011719 301.277344 218.972656 302.367188 217.882812 C 303.460938 216.789062 304.5 215.644531 305.480469 214.449219 C 306.460938 213.253906 307.378906 212.015625 308.238281 210.730469 C 309.09375 209.445312 309.890625 208.121094 310.617188 206.757812 C 311.347656 205.394531 312.007812 204 312.597656 202.574219 C 313.1875 201.144531 313.707031 199.691406 314.15625 198.214844 C 314.605469 196.734375 314.980469 195.238281 315.28125 193.722656 C 315.582031 192.207031 315.808594 190.679688 315.960938 189.140625 C 316.113281 187.601562 316.1875 186.0625 316.1875 184.515625 Z M 316.1875 128.890625 " fill-opacity="1" fill-rule="nonzero"/></g><g fill="#000000" fill-opacity="1"><g transform="translate(165.448009, 230.89522)"><g><path d="M 13.984375 -28.8125 L 22.84375 0 L 18.78125 0 L 16.890625 -6.6875 L 6.296875 -6.6875 L 4.40625 0 L 0.578125 0 L 9.375 -28.8125 Z M 11.609375 -25.390625 L 7.21875 -10.03125 L 15.96875 -10.03125 Z M 11.609375 -25.390625 "/></g></g></g><g fill="#000000" fill-opacity="1"><g transform="translate(191.051811, 230.89522)"><g><path d="M 7.046875 -28.8125 L 7.046875 0 L 3.296875 0 L 3.296875 -28.8125 Z M 7.046875 -28.8125 "/></g></g></g></svg>